# xmcd
#
# Track frame offsets: 
#        150
#        20407
#        35712
#        55361
#        71126
#        85867
#        99788
#        115965
#        138789
#        169521
#        184948
#
# Disc length: 2638 seconds
#
# Revision: 1
# Processed by: cddbd v1.5.1PL0 Copyright (c) Steve Scherf et al.
# Submitted via: ExactAudioCopy v0.95a5
#
DISCID=8f0a4c0b
DTITLE=Various Artist - Hollywood Goes Wild
DYEAR=2001
DGENRE=Rock
TTITLE0=Jeff Goldblum - Born Free'ky
TTITLE1=30 Odd Foot of Grunts featuring Russell Crowe - The Photograph
TTITLE1=Kills
TTITLE2=Bijou Phillips - Polite
TTITLE3=Brad Pitt - Midtown
TTITLE4=Juliette Lewis - Hardly Wait
TTITLE5=Dogstar - Your World
TTITLE6=Mare Winningham - It's So Hard
TTITLE7=Billy Bob Thornton - Island Avenue
TTITLE8=Milla Jovovich with Plastic Has Memory - On The Hill
TTITLE9=Bruce Willis - Crazy Mixed-up World
TTITLE10=Iggy Pop and Johnny Depp - Hollywood Affair
EXTD=YEAR: 2001
EXTT0=
EXTT1=
EXTT2=
EXTT3=
EXTT4=
EXTT5=
EXTT6=
EXTT7=
EXTT8=
EXTT9=
EXTT10=
PLAYORDER=
